<svg width="22" height="22" viewBox="0 0 22 22" fill="none" xmlns="http://www.w3.org/2000/svg">
<path d="M10 0V4H12V0H10Z" fill="#28A0FF"/>
<path d="M15.275 5.375L16.65 6.75L19.475 3.925L18.075 2.5L15.275 5.375Z" fill="#28A0FF"/>
<path d="M22 10H18V12H22V10Z" fill="#28A0FF"/>
<path d="M10 18V22H12V18H10Z" fill="#28A0FF"/>
<path d="M3.925 2.525L2.5 3.925L5.35 6.7L6.75 5.35L3.925 2.525Z" fill="#28A0FF"/>
<path d="M15.275 16.625L18.05 19.5L19.475 18.025L16.625 15.275L15.275 16.625Z" fill="#28A0FF"/>
<path d="M0 10V12H4V10H0Z" fill="#28A0FF"/>
<path d="M2.525 18.075L3.925 19.5L6.775 16.65L6.05 15.95L5.325 15.275L2.525 18.075Z" fill="#28A0FF"/>
<path d="M11 16C13.7614 16 16 13.7614 16 11C16 8.23858 13.7614 6 11 6C8.23858 6 6 8.23858 6 11C6 13.7614 8.23858 16 11 16Z" fill="#28A0FF"/>
</svg>
