<svg width="22" height="21" viewBox="0 0 22 21" fill="none" xmlns="http://www.w3.org/2000/svg">
<path d="M10 0V4H12V0H10Z" fill="#28A0FF"/>
<path d="M15.275 5.375L16.65 6.75L19.475 3.925L18.075 2.5L15.275 5.375Z" fill="#28A0FF"/>
<path d="M22 10H18V12H22V10Z" fill="#28A0FF"/>
<path d="M2.5 3.925L5.35 6.7L6.75 5.35L3.925 2.525L2.5 3.925Z" fill="#28A0FF"/>
<path d="M15.275 16.625L18.05 19.5L19.475 18.025L16.625 15.275L15.275 16.625Z" fill="#28A0FF"/>
<path d="M0 10V12H4V10H0Z" fill="#28A0FF"/>
<path d="M14.181 14.8578C15.2919 13.9407 16 12.553 16 11C16 8.23858 13.7614 6 11 6C8.23858 6 6 8.23858 6 11C6 11.0263 6.0002 11.0526 6.00061 11.0788C6.32498 11.0264 6.65844 11 7 11C8.18415 11 9.29725 11.3277 10.2938 11.9672C11.124 12.5004 11.7776 13.2043 12.2371 14.0526C12.9448 14.1593 13.6027 14.4282 14.181 14.8578Z" fill="#28A0FF"/>
<path d="M4.175 14.175C4.82004 13.53 5.57245 13.1505 6.43222 13.0366C6.61655 13.0122 6.80581 13 7 13C7.8 13 8.53767 13.2167 9.213 13.65C9.88767 14.0833 10.375 14.675 10.675 15.425L10.925 16H11.525C12.225 16 12.8127 16.2417 13.288 16.725C13.7627 17.2083 14 17.8 14 18.5C14 19.2 13.7583 19.7917 13.275 20.275C12.7917 20.7583 12.2 21 11.5 21H7C5.9 21 4.95833 20.6083 4.175 19.825C3.39167 19.0417 3 18.1 3 17C3 15.9 3.39167 14.9583 4.175 14.175Z" fill="#28A0FF"/>
</svg>
