<svg width="20" height="18" viewBox="0 0 20 18" fill="none" xmlns="http://www.w3.org/2000/svg">
<path fill-rule="evenodd" clip-rule="evenodd" d="M6.36111 15.675L13.6667 18L19.2778 16.2C19.4815 16.1333 19.6528 16.0333 19.7917 15.9C19.9306 15.7667 20 15.6083 20 15.425V1.3C20 0.966667 19.8472 0.720833 19.5417 0.5625C19.2361 0.404167 18.9259 0.391667 18.6111 0.525L13.6667 2.3L6.36111 0L0.75 1.775C0.527778 1.85833 0.347222 1.98333 0.208333 2.15C0.0694444 2.31667 0 2.50833 0 2.725V16.675C0 17.0083 0.152778 17.2583 0.458333 17.425C0.763889 17.5917 1.07407 17.6 1.38889 17.45L6.36111 15.675ZM18.3333 14.95L14.3889 16.125V11.3125L12.7222 12.5V16.125L6.36111 14.2077L1.66667 15.825V3.025L5.61111 1.85V6.5L7.27778 6V1.85L13.6667 3.72553L18.3333 2.15V14.95Z" 
fill="#28A0FF"/>
<path d="M11.7332 6.33538L11.7023 6.34843L3.90715 9.61031L5.21208 12.7287L13.0202 9.4614L13.0382 9.45392L13.0561 9.44641C13.0625 9.44369 13.0689 9.44103 13.0754 9.43837C13.0849 9.43445 13.0943 9.43053 13.1038 9.42644C14.5057 8.81911 15.5494 7.69567 16.1442 6.32186C14.7483 5.78112 13.2155 5.73589 11.7988 6.30801C11.7922 6.31072 11.7856 6.31352 11.7789 6.31633C11.774 6.3184 11.7691 6.32047 11.7642 6.3225L11.7332 6.33538Z" 
fill="#28A0FF"/>
</svg>
