<svg width="22" height="20" viewBox="0 0 22 20" fill="none" xmlns="http://www.w3.org/2000/svg">
<path d="M11.8166 10.2143H10.0304L10.881 7.83264L11.8166 10.2143Z" fill="#28A0FF"/>
<path fill-rule="evenodd" clip-rule="evenodd" d="M1 9.00013L3.05 9.10013C3.17115 8.00558 3.51811 6.94808 4.06892 5.99449C4.61972 5.0409 5.36241 4.21198 6.25 3.56013L5.13 1.84013C4.86 1.36013 5 0.750134 5.5 0.470134C6 0.200134 6.59 0.360134 6.87 0.840134L7.8 2.66013C8.81087 2.22554 9.89967 2.00141 11 2.00141C12.1003 2.00141 13.1891 2.22554 14.2 2.66013L15.13 0.840134C15.41 0.360134 16 0.200134 16.5 0.470134C17 0.750134 17.14 1.36013 16.87 1.84013L15.75 3.56013C16.6376 4.21198 17.3803 5.0409 17.9311 5.99449C18.4819 6.94808 18.8288 8.00558 18.95 9.10013L21 9.00013C21.2652 9.00013 21.5196 9.10549 21.7071 9.29303C21.8946 9.48056 22 9.73492 22 10.0001C22 10.2654 21.8946 10.5197 21.7071 10.7072C21.5196 10.8948 21.2652 11.0001 21 11.0001L18.95 10.9001C18.8288 11.9947 18.4819 13.0522 17.9311 14.0058C17.3803 14.9594 16.6376 15.7883 15.75 16.4401L16.87 18.1601C17.14 18.6401 17 19.2501 16.5 19.5301C16 19.8001 15.41 19.6401 15.13 19.1601L14.2 17.3401C13.1891 17.7747 12.1003 17.9989 11 17.9989C9.89967 17.9989 8.81087 17.7747 7.8 17.3401L6.87 19.1601C6.59 19.6401 6 19.8001 5.5 19.5301C5 19.2501 4.86 18.6401 5.13 18.1601L6.25 16.4401C5.36241 15.7883 4.61972 14.9594 4.06892 14.0058C3.51811 13.0522 3.17115 11.9947 3.05 10.9001L1 11.0001C0.734784 11.0001 0.48043 10.8948 0.292893 10.7072C0.105357 10.5197 0 10.2654 0 10.0001C0 9.73492 0.105357 9.48056 0.292893 9.29303C0.48043 9.10549 0.734784 9.00013 1 9.00013ZM9.57125 4.5L6 14.5H8.49988L9.26515 12.3571H12.6584L13.5002 14.5H16L12.0711 4.5H9.57125Z" fill="#28A0FF"/>
</svg>
