<svg width="18" height="20" viewBox="0 0 18 20" fill="none" xmlns="http://www.w3.org/2000/svg">
<path d="M10 7.87398C11.7252 7.42994 13 5.86384 13 4C13 1.79086 11.2091 0 9 0C6.79086 0 5 1.79086 5 4C5 5.86384 6.27477 7.42994 8 7.87398V15C8 15.5523 8.44772 16 9 16C9.55228 16 10 15.5523 10 15V7.87398Z" fill="#28A0FF"/>
<path d="M7 13.0867V15C7 16.1046 7.89543 17 9 17C10.1046 17 11 16.1046 11 15V13.0867C15.008 13.4404 18 14.8343 18 16.5C18 18.433 13.9706 20 9 20C4.02944 20 0 18.433 0 16.5C0 14.8343 2.99202 13.4404 7 13.0867Z" fill="#28A0FF"/>
</svg>
