<svg width="18" height="21" viewBox="0 0 18 21" fill="none" xmlns="http://www.w3.org/2000/svg">
<path d="M9 5.49146V9L15 4.5L9 0V3C7.21997 3 5.47991 3.52784 3.99987 4.51677C2.51983 5.50571 1.36628 6.91131 0.685088 8.55585C0.00389957 10.2004 -0.17433 12.01 0.172937 13.7558C0.520203 15.5016 1.37737 17.1053 2.63604 18.364C3.89472 19.6226 5.49836 20.4798 7.24419 20.8271C8.99002 21.1743 10.7996 20.9961 12.4442 20.3149C14.0887 19.6337 15.4943 18.4802 16.4832 17.0001C17.4722 15.5201 18 13.78 18 12H15.5085C15.5085 13.2873 15.1268 14.5456 14.4117 15.616C13.6965 16.6863 12.68 17.5205 11.4907 18.0131C10.3014 18.5057 8.99278 18.6346 7.73025 18.3835C6.46772 18.1323 5.30801 17.5125 4.39777 16.6022C3.48753 15.692 2.86766 14.5323 2.61652 13.2698C2.36539 12.0072 2.49428 10.6986 2.9869 9.50929C3.47951 8.32001 4.31373 7.30351 5.38405 6.58835C6.45438 5.87318 7.71274 5.49146 9 5.49146Z" fill="#28A0FF"/>
</svg>
