<svg width="21" height="13" viewBox="0 0 21 13" fill="none" xmlns="http://www.w3.org/2000/svg">
<path d="M13.3599 3C13.3599 3.46313 13.2549 3.90173 13.0676 4.29333L17.381 8.60672C17.7716 8.99725 17.7715 9.63046 17.381 10.021C16.9904 10.4115 16.3573 10.4115 15.9667 10.021L11.6533 5.70758C11.2617 5.89502 10.823 6 10.3599 6C8.70313 6 7.35987 4.65686 7.35987 3C7.35987 1.34314 8.70313 0 10.3599 0C12.0166 0 13.3599 1.34314 13.3599 3Z" fill="#28A0FF"/>
<path fill-rule="evenodd" clip-rule="evenodd" d="M1.07952 3.00963C1.49235 2.97573 1.85449 3.2829 1.88839 3.69572C1.99969 5.05098 2.43452 6.35975 3.15637 7.51216C3.87822 8.66456 4.86601 9.62696 6.03682 10.3186C7.20763 11.0101 8.52728 11.4108 9.88498 11.4867C11.2427 11.5627 12.5988 11.3118 13.8394 10.7552C14.2174 10.5856 14.6612 10.7545 14.8307 11.1324C15.0003 11.5103 14.8314 11.9542 14.4535 12.1237C12.9939 12.7786 11.3985 13.0738 9.80117 12.9844C8.20389 12.895 6.65136 12.4237 5.27393 11.6101C3.89651 10.7964 2.7344 9.66419 1.88516 8.30842C1.03593 6.95265 0.524369 5.41292 0.393426 3.8185C0.359523 3.40568 0.666699 3.04353 1.07952 3.00963Z" fill="#28A0FF"/>
<path fill-rule="evenodd" clip-rule="evenodd" d="M19.6402 2.98409C20.0531 3.01686 20.3613 3.37816 20.3285 3.79107C20.2363 4.95346 19.9415 6.09075 19.4574 7.15156C19.2854 7.52839 18.8405 7.69447 18.4637 7.5225C18.0869 7.35054 17.9208 6.90565 18.0927 6.52882C18.5042 5.62714 18.7548 4.66044 18.8332 3.67241C18.866 3.2595 19.2273 2.95133 19.6402 2.98409Z" fill="#28A0FF"/>
</svg>
