<svg width="12" height="20" viewBox="0 0 12 20" fill="none" xmlns="http://www.w3.org/2000/svg">
<path fill-rule="evenodd" clip-rule="evenodd" d="M0.5 5.25001C0.5 2.34749 2.95929 0 6 0C9.04071 0 11.5 2.34749 11.5 5.25001C11.5 9.18751 6 15 6 15C6 15 0.5 9.18751 0.5 5.25001ZM4.03569 5.25001C4.03569 6.28499 4.91571 7.12501 6 7.12501C7.08429 7.12501 7.96431 6.28499 7.96431 5.25001C7.96431 4.21501 7.08429 3.37501 6 3.37501C4.91571 3.37501 4.03569 4.21501 4.03569 5.25001Z" fill="#28A0FF"/>
<path d="M12 14.7573L10.4854 14L6 16.2427L1.51456 14L0 14.7573L4.48544 17L6.40248e-08 19.2427L1.51456 20L6 17.7573L10.4854 20L12 19.2427L7.51456 17L12 14.7573Z" fill="#28A0FF"/>
</svg>
