<svg width="20" height="20" viewBox="0 0 20 20" fill="none" xmlns="http://www.w3.org/2000/svg">
<path fill-rule="evenodd" clip-rule="evenodd" d="M4 5.79312C4 2.59034 6.68286 0 10 0C13.3171 0 16 2.59034 16 5.79312C16 10.1379 10 16 10 16C10 16 4 10.1379 4 5.79312ZM7.85712 5.79312C7.85712 6.93516 8.81714 7.86208 10 7.86208C11.1829 7.86208 12.1429 6.93516 12.1429 5.79312C12.1429 4.65104 11.1829 3.72415 10 3.72415C8.81714 3.72415 7.85712 4.65104 7.85712 5.79312Z" fill="#28A0FF"/>
<path d="M0 20H2.22222V18H0V20Z" fill="#28A0FF"/>
<path d="M4.44444 20H8.88889V18H4.44444V20Z" fill="#28A0FF"/>
<path d="M11.1111 20H15.5556V18H11.1111V20Z" fill="#28A0FF"/>
<path d="M17.7778 20H20V18H17.7778V20Z" fill="#28A0FF"/>
</svg>
