<svg width="20" height="14" viewBox="0 0 20 14" fill="none" xmlns="http://www.w3.org/2000/svg">
<path d="M15.1502 2.81858C13.3805 2.18451 11.1107 1.88808 8.82611 2.03847C6.5267 2.18983 4.56869 2.76946 3.31048 3.53602C2.01415 4.32581 1.98682 4.93266 2.00444 5.06708C2.03815 5.32425 2.39525 6.08085 4.01228 6.83811C5.14125 7.3668 6.60154 7.74738 8.21827 7.91094L6.24744 5.65856L7.75259 4.34155L11.8288 9.00006L7.75259 13.6586L6.24744 12.3416L8.35581 9.93198C6.42207 9.77082 4.61257 9.32767 3.16407 8.64933C1.30716 7.77974 0.187119 6.59116 0.0214088 5.32703C-0.143775 4.06692 0.650827 2.81447 2.26989 1.82805C3.88056 0.84675 6.17747 0.208493 8.69474 0.0427911C11.212 -0.122909 13.761 0.196347 15.8248 0.935783C17.8898 1.67568 19.3128 2.78026 19.8079 4.02457C20.0312 4.58602 20.076 5.22764 19.8409 5.88838C19.6128 6.52936 19.1493 7.11189 18.492 7.64036C17.515 8.42594 16.1291 9.0547 14.5 9.46517V7.39278C15.6866 7.04427 16.6208 6.57863 17.2388 6.08171C17.7056 5.70638 17.8889 5.40808 17.9566 5.21788C18.0173 5.04745 18.0067 4.90756 17.9495 4.76386C17.7691 4.31037 17.0064 3.48366 15.1502 2.81858Z" fill="#28A0FF"/>
</svg>
