<svg width="20" height="17" viewBox="0 0 20 17" fill="none" xmlns="http://www.w3.org/2000/svg">
<path d="M0 5.995V3.99667H1.9802V5.995H0Z" fill="#28A0FF"/>
<path d="M0 9.99167V7.99334H1.9802V9.99167H0Z" fill="#28A0FF"/>
<path d="M0 1.99833V0H1.9802V1.99833H0Z" fill="#28A0FF"/>
<path d="M3.9604 5.995V3.99667H10.9901L10.4257 5.12573L10 5.995H3.9604Z" fill="#28A0FF"/>
<path d="M3.9604 9.99167V7.99334H8.9901L8 9.99167H3.9604Z" fill="#28A0FF"/>
<path d="M3.9604 1.99833V0H17.8218V1.99833H3.9604Z" fill="#28A0FF"/>
<path fill-rule="evenodd" clip-rule="evenodd" d="M14.2893 4.49141L19.904 15.7194C20.2018 16.315 19.7699 17 19.1147 17H7.88535C7.23006 17 6.79816 16.315 7.09602 15.7194L12.7107 4.49141C13.0383 3.8362 13.9617 3.8362 14.2893 4.49141ZM12.4426 16.3001H14.5574V14.2749H12.4426V16.3001ZM12.4426 12.9198H14.5574V7.84192H12.4426V12.9198Z" 
fill="#28A0FF"/>
</svg>
