<svg width="20" height="20" viewBox="0 0 20 20" fill="none" xmlns="http://www.w3.org/2000/svg">
<path fill-rule="evenodd" clip-rule="evenodd" d="M2.34018 0.930176L0.930176 2.34018L5.29018 6.70018L5.00018 7.00018H1.00018V13.0002H5.00018L10.0002 18.0002V11.4102L14.1802 15.5902C13.5302 16.0802 12.8002 16.4702 12.0002 16.7002V18.7602C13.3402 18.4602 14.5702 17.8402 15.6102 17.0102L17.6602 19.0602L19.0702 17.6502L2.34018 0.930176ZM17.0002 10.0002C17.0002 10.8202 16.8502 11.6102 16.5902 12.3402L18.1202 13.8702C18.6802 12.7002 19.0002 11.3902 19.0002 10.0002C19.0002 5.72018 16.0102 2.14018 12.0002 1.23018V3.29018C14.8902 4.15018 17.0002 6.83018 17.0002 10.0002ZM10.0002 2.00018L8.12018 3.88018L10.0002 5.76018V2.00018ZM14.5002 10.0002C14.5002 8.23018 13.4802 6.71018 12.0002 5.97018V7.76017L14.4802 10.2402C14.4902 10.1602 14.5002 10.0802 14.5002 10.0002Z" 
fill="#28A0FF"/>
</svg>
