<svg width="21" height="20" viewBox="0 0 21 20" fill="none" xmlns="http://www.w3.org/2000/svg">
<path d="M3.16817 19.3326L1.75034 18.2585L4.19932 14.9717L5.1875 10.8471C5.25911 10.5178 5.40591 10.2242 5.62789 9.96637C5.84987 9.70858 6.13988 9.5224 6.49792 9.40783L14.6182 6.91589L16.4013 3.19945L19.0865 0.600098L20.2251 1.71718L17.9265 4.2306L16.4013 8.26927L12.0833 11.2768L7.05646 12.8665L5.78901 15.874L3.16817 19.3326ZM2.05109 12.2005C1.56416 12.2005 1.13809 12.0251 0.772896 11.6742C0.407697 11.3233 0.225098 10.8973 0.225098 10.396C0.225098 9.89476 0.407697 9.4687 0.772896 9.11782C1.13809 8.76694 1.56416 8.59151 2.05109 8.59151C2.55234 8.59151 2.98199 8.76694 3.34003 9.11782C3.69807 9.4687 3.87708 9.89476 3.87708 10.396C3.87708 10.8973 3.69807 11.3233 3.34003 11.6742C2.98199 12.0251 2.55234 12.2005 2.05109 12.2005ZM7.0135 8.09741C6.66978 8.21199 6.34039 8.17618 6.02531 7.99C5.71024 7.80382 5.50258 7.53171 5.40233 7.17368C5.30208 6.82996 5.33788 6.50056 5.50974 6.18549C5.6816 5.87042 5.94654 5.66276 6.30458 5.5625L10.4507 4.20912L11.1381 6.78699L7.0135 8.09741Z" fill="#28A0FF"/>
</svg>
