<svg width="22" height="20" viewBox="0 0 22 20" fill="none" xmlns="http://www.w3.org/2000/svg">
<path d="M11 13.0001C12.6569 13.0001 14 11.657 14 10.0001C14 8.34325 12.6569 7.0001 11 7.0001C9.34315 7.0001 8 8.34325 8 10.0001C8 11.657 9.34315 13.0001 11 13.0001Z" fill="#28A0FF"/>
<path d="M6.82637 0.887836C6.57568 0.404158 5.97198 0.227609 5.50019 0.5C5.02839 0.772391 4.87944 1.38349 5.17297 1.84243L6.81711 4.41304C5.31257 5.536 4.2747 7.24961 4.04706 9.21032L0.998969 9.07177C0.454748 9.04704 0 9.48158 0 10.0264C0 10.5711 0.454748 11.0057 0.998969 10.981L4.04706 10.8424C4.2747 12.8031 5.31254 14.5167 6.81703 15.6396L5.17297 18.2101C4.87943 18.6691 5.02839 19.2802 5.50018 19.5526C5.97198 19.8249 6.57568 19.6484 6.82637 19.1647L8.22984 16.4569C9.0794 16.8233 10.016 17.0264 11 17.0264C11.9841 17.0264 12.9208 16.8233 13.7705 16.4567L15.174 19.1647C15.4247 19.6484 16.0284 19.825 16.5002 19.5526C16.972 19.2802 17.1209 18.6691 16.8274 18.2101L15.1832 15.6394C16.6876 14.5165 17.7253 12.803 17.9529 10.8424L21.001 10.981C21.5453 11.0057 22 10.5711 22 10.0264C22 9.48158 21.5453 9.04704 21.001 9.07177L17.9529 9.21032C17.7253 7.24972 16.6875 5.53619 15.1831 4.41323L16.8274 1.84243C17.1209 1.38349 16.972 0.772391 16.5002 0.5C16.0284 0.227608 15.4247 0.404159 15.174 0.887836L13.7704 3.59597C12.9208 3.22944 11.9841 3.02637 11 3.02637C10.016 3.02637 9.07945 3.22939 8.22991 3.59584L6.82637 0.887836ZM16 10.0263C16 12.7877 13.7614 15.0263 11 15.0263C8.23858 15.0263 6 12.7877 6 10.0263C6 7.26489 8.23858 5.02631 11 5.02631C13.7614 5.02631 16 7.26489 16 10.0263Z" 
fill="#28A0FF"/>
</svg>
