<svg width="22" height="21" viewBox="0 0 22 21" fill="none" xmlns="http://www.w3.org/2000/svg">
<path fill-rule="evenodd" clip-rule="evenodd" d="M3.96857 0L2.00006 1.28793L5.29448 5.80084C4.6282 6.7363 4.18623 7.8426 4.04706 9.04125L0.998968 8.9027C0.454748 8.87796 0 9.31251 0 9.8573C0 10.4021 0.454748 10.8366 0.998969 10.8119L4.04706 10.6733C4.2747 12.634 5.31254 14.3476 6.81703 15.4706L5.17297 18.0411C4.87943 18.5 5.02839 19.1111 5.50018 19.3835C5.97198 19.6559 6.57568 19.4793 6.82637 18.9957L8.22984 16.2878C9.0794 16.6543 10.016 16.8573 11 16.8573C11.7411 16.8573 12.4554 16.7421 13.1258 16.5287L16.2858 20.8574L18.2535 19.5694L3.96857 0ZM6 9.85724C6 9.02233 6.20464 8.23522 6.56649 7.54332L11.8528 14.7848C11.5756 14.8324 11.2907 14.8572 11 14.8572C8.23858 14.8572 6 12.6187 6 9.85724Z" fill="#28A0FF"/>
<path d="M16.7056 13.9137C17.3718 12.9782 17.8138 11.872 17.9529 10.6733L21.001 10.8119C21.5453 10.8366 22 10.4021 22 9.8573C22 9.31251 21.5453 8.87796 21.001 8.9027L17.9529 9.04125C17.7253 7.08065 16.6875 5.36712 15.1831 4.24416L16.8274 1.67336C17.1209 1.21442 16.972 0.60332 16.5002 0.330928C16.0284 0.0585368 15.4247 0.235087 15.174 0.718765L13.7704 3.4269C12.9208 3.06037 11.9841 2.8573 11 2.8573C10.2589 2.8573 9.54467 2.97247 8.87427 3.18589L10.1472 4.92967C10.4244 4.88205 10.7093 4.85724 11 4.85724C13.7614 4.85724 16 7.09582 16 9.85724C16 10.6921 15.7954 11.4793 15.4335 12.1712L16.7056 13.9137Z" fill="#28A0FF"/>
</svg>
