<svg width="20" height="20" viewBox="0 0 20 20" fill="none" xmlns="http://www.w3.org/2000/svg">
<path d="M6.625 9.09091C7.24632 9.09091 7.75 8.60249 7.75 8C7.75 7.39751 7.24632 6.90909 6.625 6.90909C6.00368 6.90909 5.5 7.39751 5.5 8C5.5 8.60249 6.00368 9.09091 6.625 9.09091Z" fill="#28A0FF"/>
<path fill-rule="evenodd" clip-rule="evenodd" d="M2 0H18C19.1 0 20 0.9 20 2V14C20 15.1 19.1 16 18 16H4L0 20V2C0 0.9 0.9 0 2 0ZM6.625 12C8.51317 12 10.105 10.7698 10.5947 9.09091H12.25V10.5455H13.75V9.09091H14.5V11.2727H16.75V9.09091H17.5V6.18182H10.3002C9.61745 4.88666 8.22801 4 6.625 4C4.34683 4 2.5 5.79086 2.5 8C2.5 10.2091 4.34683 12 6.625 12Z" fill="#28A0FF"/>
</svg>
