<svg width="22" height="20" viewBox="0 0 22 20" fill="none" xmlns="http://www.w3.org/2000/svg">
<path d="M3 2C3 0.9 3.9 0 5 0C6.1 0 7 0.9 7 2C7 3.1 6.1 4 5 4C3.9 4 3 3.1 3 2Z" fill="#28A0FF"/>
<path d="M7.78 5.58C6.93 5.21 5.99 5 5 5C4.01 5 3.07 5.21 2.22 5.58C1.48 5.9 1 6.62 1 7.43V8H9V7.43C9 6.62 8.52 5.9 7.78 5.58Z" fill="#28A0FF"/>
<path d="M19 2C19 3.1 18.1 4 17 4C15.9 4 15 3.1 15 2C15 0.9 15.9 0 17 0C18.1 0 19 0.9 19 2Z" fill="#28A0FF"/>
<path d="M19.78 5.58C18.93 5.21 17.99 5 17 5C16.01 5 15.07 5.21 14.22 5.58C13.48 5.9 13 6.62 13 7.43V8H21V7.43C21 6.62 20.52 5.9 19.78 5.58Z" fill="#28A0FF"/>
<path d="M6.82637 10.5161C6.57568 10.0324 5.97198 9.85584 5.50019 10.1282C5.02839 10.4006 4.87944 11.0117 5.17297 11.4707L6.81711 14.0413C5.31257 15.1642 4.2747 16.8778 4.04706 18.8386L0.998969 18.7C0.454748 18.6753 0 19.1098 0 19.6546C0 19.7766 0.0227929 19.893 0.0642799 20H6.01175C6.00396 19.8859 6 19.7707 6 19.6545C6 16.8931 8.23858 14.6545 11 14.6545C13.7614 14.6545 16 16.8931 16 19.6545C16 19.7707 15.996 19.8859 15.9883 20H21.9357C21.9772 19.893 22 19.7766 22 19.6546C22 19.1098 21.5453 18.6753 21.001 18.7L17.9529 18.8386C17.7253 16.878 16.6875 15.1644 15.1831 14.0415L16.8274 11.4707C17.1209 11.0117 16.972 10.4006 16.5002 10.1282C16.0284 9.85584 15.4247 10.0324 15.174 10.5161L13.7704 13.2242C12.9208 12.8577 11.9841 12.6546 11 12.6546C10.016 12.6546 9.07945 12.8576 8.22991 13.2241L6.82637 10.5161Z" fill="#28A0FF"/>
<path d="M8 19.5C8 19.6704 8.0142 19.8374 8.04148 20H13.9585C13.9858 19.8374 14 19.6704 14 19.5C14 17.8431 12.6569 16.5 11 16.5C9.34315 16.5 8 17.8431 8 19.5Z" fill="#28A0FF"/>
</svg>
