<svg width="20" height="11" viewBox="0 0 20 11" fill="none" xmlns="http://www.w3.org/2000/svg">
<path d="M5.38462 6.92308C6.23428 6.92308 6.92308 6.23428 6.92308 5.38462C6.92308 4.53495 6.23428 3.84615 5.38462 3.84615C4.53495 3.84615 3.84615 4.53495 3.84615 5.38462C3.84615 6.23428 4.53495 6.92308 5.38462 6.92308Z" fill="#28A0FF"/>
<path fill-rule="evenodd" clip-rule="evenodd" d="M20 7.69231V3.07692H10.2511C9.38685 1.25773 7.53261 0 5.38462 0C2.41077 0 0 2.41077 0 5.38462C0 8.35846 2.41077 10.7692 5.38462 10.7692C7.53261 10.7692 9.38685 9.5115 10.2511 7.69231H11.5V8.5H13V7.69231H13.8462V9.76923H18.4615V7.69231H20ZM15.3846 6.15385H9.27867L8.86142 7.03217C8.24244 8.33516 6.91659 9.23077 5.38462 9.23077C3.26044 9.23077 1.53846 7.50879 1.53846 5.38462C1.53846 3.26044 3.26044 1.53846 5.38462 1.53846C6.91659 1.53846 8.24244 2.43407 8.86142 3.73707L9.27867 4.61538H18.4615V6.15385H16.9231V8.23077H15.3846V6.15385Z" fill="#28A0FF"/>
</svg>
