<svg width="21" height="20" viewBox="0 0 21 20" fill="none" xmlns="http://www.w3.org/2000/svg">
<path fill-rule="evenodd" clip-rule="evenodd" d="M19.7071 0.292893C20.0976 0.683417 20.0976 1.31658 19.7071 1.70711L1.70711 19.7071C1.31658 20.0976 0.683417 20.0976 0.292893 19.7071C-0.0976311 19.3166 -0.0976311 18.6834 0.292893 18.2929L18.2929 0.292893C18.6834 -0.0976311 19.3166 -0.0976311 19.7071 0.292893Z" 
fill="#28A0FF"/>
<path d="M1.49012e-08 1.49012e-08H9V2H1.49012e-08V1.49012e-08Z" fill="#28A0FF"/>
<path d="M1.49012e-08 4H9V6H1.49012e-08V4Z" fill="#28A0FF"/>
<path fill-rule="evenodd" clip-rule="evenodd" d="M20.5285 15.7066L19.8829 16.4703C19.8559 16.5023 19.8232 16.5429 19.7853 16.5901C19.5859 16.8381 19.2413 17.2669 18.8033 17.5706C18.1984 17.9899 17.4241 18.1989 16.4458 17.9981C15.5182 17.8077 14.8836 17.3425 14.4102 16.9954C14.3985 16.9868 14.3869 16.9783 14.3754 16.9699C13.8843 16.6102 13.5591 16.3848 13.0848 16.2874C12.7906 16.227 12.6085 16.2438 12.437 16.3048C12.2378 16.3756 11.9674 16.5373 11.5545 16.914L10.8157 17.5879L9.46777 16.1104L10.2065 15.4364C10.7071 14.9798 11.2078 14.6192 11.7671 14.4204C12.354 14.2117 12.9179 14.2115 13.4869 14.3283C14.4145 14.5187 15.0491 14.9839 15.5225 15.331C15.5342 15.3396 15.5458 15.3481 15.5573 15.3565C16.0484 15.7162 16.3736 15.9416 16.848 16.039C17.2945 16.1307 17.5112 16.0327 17.6638 15.9269C17.8428 15.8028 17.9636 15.6552 18.1514 15.4256C18.2113 15.3524 18.278 15.2708 18.3556 15.1791L19.0012 14.4154L20.5285 15.7066Z" 
fill="#28A0FF"/>
</svg>
