<svg width="20" height="20" viewBox="0 0 20 20" fill="none" xmlns="http://www.w3.org/2000/svg">
<path d="M7.4 4.4H8.069C8.58 4.4 9 4.82 9 5.331V16.069C9 16.58 8.58 17 8.062 17H3.931C3.42 17 3 16.58 3 16.062V5.331C3 4.82 3.42 4.4 3.931 4.4H4.6V3H7.4V4.4Z" fill="#28A0FF"/>
<path d="M15.4 4.4H16.069C16.58 4.4 17 4.82 17 5.331V16.069C17 16.58 16.58 17 16.062 17H11.931C11.42 17 11 16.58 11 16.062V5.331C11 4.82 11.42 4.4 11.931 4.4H12.6V3H15.4V4.4Z" fill="#28A0FF"/>
<path fill-rule="evenodd" clip-rule="evenodd" d="M0 2C0 0.895431 0.895431 0 2 0H18C19.1046 0 20 0.895431 20 2V18C20 19.1046 19.1046 20 18 20H2C0.895431 20 0 19.1046 0 18V2ZM2 1.5H18C18.2761 1.5 18.5 1.72386 18.5 2V18C18.5 18.2761 18.2761 18.5 18 18.5H2C1.72386 18.5 1.5 18.2761 1.5 18V2C1.5 1.72386 1.72386 1.5 2 1.5Z" fill="#28A0FF"/>
</svg>
