<svg width="20" height="20" viewBox="0 0 20 20" fill="none" xmlns="http://www.w3.org/2000/svg">
<path fill-rule="evenodd" clip-rule="evenodd" d="M19.7071 0.292893C20.0976 0.683417 20.0976 1.31658 19.7071 1.70711L1.70711 19.7071C1.31658 20.0976 0.683417 20.0976 0.292893 19.7071C-0.0976311 19.3166 -0.0976311 18.6834 0.292893 18.2929L18.2929 0.292893C18.6834 -0.0976311 19.3166 -0.0976311 19.7071 0.292893Z" 
fill="#28A0FF"/>
<path d="M1.49012e-08 1.49012e-08H9V2H1.49012e-08V1.49012e-08Z" fill="#28A0FF"/>
<path d="M11 14H20V16H11V14Z" fill="#28A0FF"/>
<path d="M1.49012e-08 4H9V6H1.49012e-08V4Z" fill="#28A0FF"/>
<path d="M11 18H20V20H11V18Z" fill="#28A0FF"/>
</svg>
