<svg width="20" height="20" viewBox="0 0 20 20" fill="none" xmlns="http://www.w3.org/2000/svg">
<path fill-rule="evenodd" clip-rule="evenodd" d="M10 -4.37114e-07C15.5228 -6.78525e-07 20 4.47715 20 10C20 15.5228 15.5228 20 10 20C4.47715 20 -1.95703e-07 15.5228 -4.37114e-07 10C-6.78525e-07 4.47715 4.47715 -1.95703e-07 10 -4.37114e-07ZM10 2C14.4183 2 18 5.58172 18 10C18 14.4183 14.4183 18 10 18C5.58172 18 2 14.4183 2 10C2 5.58172 5.58172 2 10 2Z" fill="#28A0FF"/>
<path d="M10 4C11.1046 4 12 4.89543 12 6L12 14C12 15.1046 11.1046 16 10 16C8.89543 16 8 15.1046 8 14L8 6C8 4.89543 8.89543 4 10 4Z" fill="#28A0FF"/>
</svg>
