<svg width="22" height="22" viewBox="0 0 22 22" fill="none" xmlns="http://www.w3.org/2000/svg">
<path d="M14.2 11C14.2 10.0059 15.0059 9.2 16 9.2C16.9941 9.2 17.8 10.0059 17.8 11C17.8 11.9941 16.9941 12.8 16 12.8C15.0059 12.8 14.2 11.9941 14.2 11Z" fill="#28A0FF"/>
<path d="M6.5 9.2C5.83726 9.2 5.3 9.73726 5.3 10.4V11.6C5.3 12.2627 5.83726 12.8 6.5 12.8H12.2C12.8627 12.8 13.4 12.2627 13.4 11.6V10.4C13.4 9.73726 12.8627 9.2 12.2 9.2H6.5Z" fill="#28A0FF"/>
<path fill-rule="evenodd" clip-rule="evenodd" d="M12.8 2.3C12.8 3.08373 12.2991 3.75047 11.6 3.99758V6H16.7V3.99758C16.0009 3.75047 15.5 3.08373 15.5 2.3C15.5 1.30589 16.3059 0.5 17.3 0.5C18.2941 0.5 19.1 1.30589 19.1 2.3C19.1 3.08373 18.5991 3.75047 17.9 3.99758V6H20.3C20.9627 6 21.5 6.5373 21.5 7.2V14.8C21.5 15.4627 20.9627 16 20.3 16H17.9V18.0024C18.5991 18.2495 19.1 18.9163 19.1 19.7C19.1 20.6941 18.2941 21.5 17.3 21.5C16.3059 21.5 15.5 20.6941 15.5 19.7C15.5 18.9163 16.0009 18.2495 16.7 18.0024V16H11.6V18.0024C12.2991 18.2495 12.8 18.9163 12.8 19.7C12.8 20.6941 11.9941 21.5 11 21.5C10.0059 21.5 9.2 20.6941 9.2 19.7C9.2 18.9163 9.70089 18.2495 10.4 18.0024V16H5.3V18.0024C5.99912 18.2495 6.5 18.9163 6.5 19.7C6.5 20.6941 5.69411 21.5 4.7 21.5C3.70589 21.5 2.9 20.6941 2.9 19.7C2.9 18.9163 3.40088 18.2495 4.1 18.0024V16H1.7C1.0373 16 0.5 15.4627 0.5 14.8V7.2C0.5 6.5373 1.0373 6 1.7 6H4.1V3.99758C3.40088 3.75047 2.9 3.08373 2.9 2.3C2.9 1.30589 3.70589 0.5 4.7 0.5C5.69411 0.5 6.5 1.30589 6.5 2.3C6.5 3.08373 5.99911 3.75047 5.3 3.99758V6H10.4V3.99758C9.70089 3.75047 9.2 3.08373 9.2 2.3C9.2 1.30589 10.0059 0.5 11 0.5C11.9941 0.5 12.8 1.30589 12.8 2.3ZM2.4 14.1H19.6V7.9H2.4V14.1Z" fill="#28A0FF"/>
</svg>
