<svg width="20" height="20" viewBox="0 0 20 20" fill="none" xmlns="http://www.w3.org/2000/svg">
<path fill-rule="evenodd" clip-rule="evenodd" d="M10.9638 0.530283C10.3637 0.200192 9.63633 0.200192 9.03616 0.530283L5.03616 2.73028C4.39707 3.08179 4 3.75333 4 4.48271V8.80017C4 9.52956 4.39707 10.2011 5.03616 10.5526L9.03616 12.7526C9.63633 13.0827 10.3637 13.0827 10.9638 12.7526L14.9638 10.5526C15.6029 10.2011 16 9.52956 16 8.80017V4.48272C16 3.75333 15.6029 3.08179 14.9638 2.73028L10.9638 0.530283ZM9 7.23271L6 5.58271V8.80017L9 10.4502V7.23271ZM14 8.80017L11 10.4502V7.23271L14 5.58271V8.80017ZM12.925 3.89144L10 5.50017L7.07504 3.89144L10 2.28271L12.925 3.89144Z" fill="#28A0FF"/>
<path d="M0 6.00017C0 4.90017 0.9 4.00017 2 4.00017V14.0002H18V4.00017C19.1 4.00017 20 4.90017 20 6.00017V14.0002C20 15.1002 19.1 16.0002 18 16.0002H12V18.0002H14V20.0002H6V18.0002H8V16.0002H2C0.9 16.0002 0 15.1002 0 14.0002V6.00017Z" fill="#28A0FF"/>
</svg>
