<svg width="20" height="20" viewBox="0 0 20 20" fill="none" xmlns="http://www.w3.org/2000/svg">
<path fill-rule="evenodd" clip-rule="evenodd" d="M7.87398 3C7.42994 1.27477 5.86384 0 4 0C1.79086 0 0 1.79086 0 4C0 6.20914 1.79086 8 4 8C5.86384 8 7.42994 6.72523 7.87398 5H9L9 12.126C7.59439 12.4878 6.4878 13.5944 6.12602 15H9.53674e-07V17H6.12602C6.57006 18.7252 8.13616 20 10 20C11.8638 20 13.4299 18.7252 13.874 17H20V15H13.874C13.5122 13.5944 12.4056 12.4878 11 12.126L11 5H12.1261C12.5701 6.72523 14.1362 8 16.0001 8C18.2092 8 20.0001 6.20914 20.0001 4C20.0001 1.79086 18.2092 0 16.0001 0C14.1362 0 12.5701 1.27477 12.1261 3H7.87398ZM4 2C5.10457 2 6 2.89543 6 4C6 5.10457 5.10457 6 4 6C2.89543 6 2 5.10457 2 4C2 2.89543 2.89543 2 4 2ZM10 14C11.1046 14 12 14.8954 12 16C12 17.1046 11.1046 18 10 18C8.89543 18 8 17.1046 8 16C8 14.8954 8.89543 14 10 14ZM16.0001 2C17.1046 2 18.0001 2.89543 18.0001 4C18.0001 5.10457 17.1046 6 16.0001 6C14.8955 6 14.0001 5.10457 14.0001 4C14.0001 2.89543 14.8955 2 16.0001 2Z" fill="#28A0FF"/>
</svg>
