<svg width="20" height="19" viewBox="0 0 20 19" fill="none" xmlns="http://www.w3.org/2000/svg">
<path d="M0.737 10.875C1.229 12.0917 1.95 13.2 2.9 14.2L4.1 13C3.3 12.2 2.7 11.279 2.3 10.237C1.9 9.19567 1.7 8.15 1.7 7.1C1.7 6.05 1.9 5.004 2.3 3.962C2.7 2.92067 3.3 2 4.1 1.2L2.9 0C1.95 1 1.229 2.10833 0.737 3.325C0.245667 4.54167 0 5.8 0 7.1C0 8.4 0.245667 9.65833 0.737 10.875Z" fill="#28A0FF"/>
<path d="M3.812 9.6C4.154 10.4167 4.65 11.15 5.3 11.8L6.5 10.6C6 10.1 5.625 9.54167 5.375 8.925C5.125 8.30833 5 7.7 5 7.1C5 6.45 5.125 5.81667 5.375 5.2C5.625 4.58333 6 4.05 6.5 3.6L5.3 2.4C4.65 3.05 4.154 3.78333 3.812 4.6C3.47067 5.41667 3.3 6.25 3.3 7.1C3.3 7.95 3.47067 8.78333 3.812 9.6Z" fill="#28A0FF"/>
<path d="M13.5 10.6L14.7 11.8C15.35 11.15 15.846 10.4167 16.188 9.6C16.5293 8.78333 16.7 7.95 16.7 7.1C16.65 6.25 16.4667 5.41667 16.15 4.6C15.8333 3.78333 15.35 3.05 14.7 2.4L13.5 3.6C14 4.1 14.375 4.65833 14.625 5.275C14.875 5.89167 15 6.5 15 7.1C15 7.75 14.875 8.38333 14.625 9C14.375 9.61667 14 10.15 13.5 10.6Z" fill="#28A0FF"/>
<path d="M15.9 13L17.1 14.2C18.1 13.2 18.8333 12.0917 19.3 10.875C19.7667 9.65833 20 8.4 20 7.1C20 5.8 19.7543 4.54167 19.263 3.325C18.771 2.10833 18.05 1 17.1 0L15.9 1.2C16.7 2 17.3 2.92067 17.7 3.962C18.1 5.004 18.3 6.05 18.3 7.1C18.3 8.15 18.1 9.19567 17.7 10.237C17.3 11.279 16.7 12.2 15.9 13Z" fill="#28A0FF"/>
<path d="M13 7C13 8.30615 12.165 9.41748 11 9.8291V19H9V9.8291C7.83496 9.41748 7 8.30615 7 7C7 5.34326 8.34277 4 10 4C11.6572 4 13 5.34326 13 7Z" fill="#28A0FF"/>
</svg>
