<svg width="23" height="23" viewBox="0 0 23 23" fill="none" xmlns="http://www.w3.org/2000/svg">
<path d="M2.8685 4.57501C2.47798 4.18448 2.47798 3.55132 2.8685 3.1608L4.98982 1.03948C5.38034 0.648951 6.01351 0.648951 6.40403 1.03948L10.6467 5.28212C11.0372 5.67264 11.0372 6.30581 10.6467 6.69633L10.2931 7.04988L11.0002 7.75699L13.8287 4.92856C14.2192 4.53804 14.8523 4.53804 15.2429 4.92856L18.0713 7.75699C18.4618 8.14751 18.4618 8.78068 18.0713 9.1712L15.2429 11.9996L15.95 12.7067L16.3035 12.3532C16.6941 11.9627 17.3272 11.9627 17.7177 12.3532L21.9604 16.5958C22.3509 16.9863 22.3509 17.6195 21.9604 18.01L19.8391 20.1314C19.4485 20.5219 18.8154 20.5219 18.4248 20.1314L14.1822 15.8887C13.7917 15.4982 13.7917 14.865 14.1822 14.4745L14.5358 14.1209L13.8287 13.4138L12.4144 14.8281C12.0239 15.2186 11.3908 15.2186 11.0002 14.8281L8.1718 11.9996C7.78128 11.6091 7.78128 10.9759 8.1718 10.5854L9.58601 9.1712L8.87891 8.4641L8.52535 8.81765C8.13483 9.20817 7.50166 9.20817 7.11114 8.81765L2.8685 4.57501Z" fill="#28A0FF"/>
<path d="M7.46416 15.5353C7.92846 15.9996 8.47965 16.3679 9.08628 16.6192C9.69291 16.8705 10.3431 16.9998 10.9997 16.9998V18.9998C10.0804 18.9998 9.17019 18.8188 8.32092 18.467C7.47164 18.1152 6.69996 17.5996 6.04995 16.9496C5.39994 16.2995 4.88433 15.5279 4.53254 14.6786C4.18076 13.8293 3.9997 12.9191 3.9997 11.9998L5.9997 11.9998C5.9997 12.6564 6.12903 13.3066 6.3803 13.9132C6.63157 14.5199 6.99987 15.0711 7.46416 15.5353Z" fill="#28A0FF"/>
<path d="M4.63604 18.364C5.47177 19.1997 6.46392 19.8626 7.55585 20.3149C8.64778 20.7672 9.8181 21 11 21L11 23C9.55546 23 8.12507 22.7155 6.79048 22.1627C5.4559 21.6099 4.24327 20.7996 3.22183 19.7782C2.20038 18.7567 1.39013 17.5441 0.837326 16.2095C0.284524 14.8749 -5.96046e-08 13.4445 0 12L2 12C2 13.1819 2.23279 14.3522 2.68508 15.4441C3.13738 16.5361 3.80031 17.5282 4.63604 18.364Z" fill="#28A0FF"/>
</svg>
