<svg width="20" height="22" viewBox="0 0 20 22" fill="none" xmlns="http://www.w3.org/2000/svg">
<path d="M5.46873 10.353C5.37401 10.6038 5.28514 10.8535 5.20311 11.1016C3.75584 9.6526 3.08104 8.22023 3.59373 7.33302C4.07616 6.49635 5.50682 6.33155 7.32713 6.75831C7.25389 6.86695 7.18162 6.97731 7.11033 7.08937C6.99119 7.27491 6.87498 7.46485 6.76073 7.65919C6.62889 7.63356 6.49998 7.61158 6.37498 7.59352C6.10838 7.55519 5.86717 7.53566 5.65233 7.53175C5.35155 7.52638 5.10252 7.55152 4.90526 7.5984C4.5703 7.67823 4.48241 7.79371 4.45994 7.83302C4.43651 7.87208 4.38084 8.00636 4.47948 8.33619C4.57811 8.66871 4.81053 9.10377 5.20994 9.61183C5.3242 9.75733 5.45018 9.90528 5.58592 10.0552L5.46873 10.353Z" fill="#28A0FF"/>
<path d="M14.4228 12.0144C14.5644 11.6638 14.6924 11.3145 14.8066 10.9683C16.2519 12.4165 16.9267 13.8482 16.414 14.7351C15.9316 15.5713 14.5019 15.7363 12.6826 15.3103C12.8769 15.022 13.0664 14.7212 13.249 14.4092L13.3847 14.4348L13.4922 14.4529L13.6328 14.4744C14.2724 14.5667 14.7656 14.5501 15.1025 14.4695C15.4375 14.3899 15.5254 14.2744 15.5488 14.2351C15.5713 14.1961 15.6269 14.0615 15.5283 13.7319C15.4297 13.3992 15.1972 12.9641 14.7978 12.4563C14.6836 12.3113 14.5586 12.1638 14.4228 12.0144Z" fill="#28A0FF"/>
<path fill-rule="evenodd" clip-rule="evenodd" d="M6.67321 16.8034C5.25704 15.9857 5.60034 12.7398 7.44001 9.55344C9.27966 6.36706 11.919 4.4468 13.3352 5.26443C14.7514 6.08206 14.4081 9.32795 12.5684 12.5143C10.7288 15.7007 8.08938 17.621 6.67321 16.8034ZM7.13645 12.7129C6.97883 13.2371 6.87693 13.7293 6.83012 14.1719C6.76953 14.7447 6.80632 15.1864 6.89609 15.491C6.98386 15.7889 7.10096 15.8956 7.17321 15.9373C7.24546 15.979 7.39644 16.0271 7.69825 15.9542C8.00698 15.8796 8.40786 15.6906 8.87369 15.3517C9.23356 15.0899 9.60891 14.7555 9.98411 14.3569C9.50234 14.134 9.0131 13.8808 8.52342 13.5982C8.03417 13.3156 7.5702 13.0187 7.13645 12.7129ZM10.661 13.5653C10.6334 13.5531 10.6057 13.5408 10.5781 13.5283C10.0703 13.301 9.54881 13.0354 9.02342 12.7322C8.46978 12.4124 7.95416 12.0752 7.48353 11.7309C7.70383 11.1866 7.9778 10.622 8.30603 10.0534C8.63416 9.4851 8.98611 8.96562 9.34723 8.50278C9.88073 8.73817 10.4302 9.01601 10.9844 9.33595C11.5384 9.65573 12.0538 9.99301 12.5247 10.3374C12.3044 10.8815 12.0305 11.446 11.7024 12.0143C11.3742 12.5828 11.0222 13.1024 10.661 13.5653ZM10.0238 7.71141C10.3992 7.31255 10.7747 6.978 11.1347 6.71606C11.6006 6.37716 12.0014 6.18819 12.3102 6.1136C12.612 6.04069 12.763 6.08874 12.8352 6.13045C12.9075 6.17217 13.0246 6.27889 13.1123 6.57673C13.2021 6.88139 13.2389 7.32305 13.1783 7.89592C13.1315 8.33863 13.0295 8.83106 12.8718 9.3555C12.4378 9.04955 11.974 8.75242 11.4844 8.46974C11.2305 8.32301 10.9765 8.18434 10.7236 8.05348C10.4894 7.93254 10.2562 7.81844 10.0238 7.71141Z" fill="#28A0FF"/>
<path fill-rule="evenodd" clip-rule="evenodd" d="M16.1279 0.134043C15.8896 -0.00389598 15.6172 -0.0319722 15.3701 0.03419C15.123 0.100352 14.9004 0.260997 14.7627 0.500254L13.9785 1.85792C9.02733 -0.291005 3.23436 1.88502 0.939437 6.80738C-1.10451 11.19 0.301741 16.2966 4.04295 19.0662L3.50975 19.9895C3.23436 20.4678 3.39744 21.0794 3.87596 21.3555C4.35448 21.6316 4.9658 21.4678 5.24217 20.9895L5.7617 20.0899L5.77635 20.0967C10.7812 22.4307 16.7314 20.2651 19.0654 15.2598C21.1514 10.7861 19.6435 5.55812 15.7256 2.83131L16.4941 1.50025C16.7705 1.02198 16.6064 0.410411 16.1279 0.134043ZM17.2529 14.4146C15.3857 18.419 10.626 20.1514 6.62108 18.2842C2.61717 16.4168 0.884749 11.657 2.75194 7.6526C4.61912 3.64845 9.37889 1.91603 13.3838 3.78321C17.3877 5.6504 19.1201 10.4102 17.2529 14.4146Z" fill="#28A0FF"/>
</svg>
