<svg width="21" height="22" viewBox="0 0 21 22" fill="none" xmlns="http://www.w3.org/2000/svg">
<path d="M13.4442 2.68508C14.5361 3.13737 15.5282 3.80031 16.364 4.63604C17.1997 5.47176 17.8626 6.46392 18.3149 7.55585C18.7672 8.64778 19 9.8181 19 11H21C21 9.55546 20.7155 8.12506 20.1627 6.79048C19.6099 5.4559 18.7996 4.24327 17.7782 3.22182C16.7567 2.20038 15.5441 1.39012 14.2095 0.837324C12.8749 0.284523 11.4445 0 10 0V2C11.1819 2 12.3522 2.23279 13.4442 2.68508Z" fill="#28A0FF"/>
<path d="M11.9137 6.38048C12.5203 6.63176 13.0715 7.00005 13.5358 7.46435C14.0001 7.92864 14.3684 8.47983 14.6197 9.08646C14.871 9.69309 15.0003 10.3433 15.0003 10.9999H17.0003C17.0003 10.0806 16.8192 9.17037 16.4675 8.32109C16.1157 7.47182 15.6001 6.70014 14.9501 6.05013C14.3 5.40012 13.5284 4.88451 12.6791 4.53272C11.8298 4.18094 10.9196 3.99988 10.0003 3.99988L10.0003 5.99988C10.6569 5.99988 11.3071 6.12921 11.9137 6.38048Z" fill="#28A0FF"/>
<path d="M14.9497 15.95C13.637 17.2627 11.8565 18.0002 10 18.0002C8.14348 18.0002 6.36301 17.2627 5.05025 15.95C3.7375 14.6372 3 12.8567 3 11.0002C3 9.14371 3.7375 7.36323 5.05025 6.05048L9.70704 10.7073L10.0633 10.351C10.0224 10.2419 10 10.1237 10 10.0002C10 9.44796 10.4477 9.00024 11 9.00024C11.5523 9.00024 12 9.44796 12 10.0002C12 10.5525 11.5523 11.0002 11 11.0002C10.9458 11.0002 10.8927 10.9959 10.8409 10.9877L10.4141 11.4144L14.9497 15.95Z" fill="#28A0FF"/>
<path d="M0 22.0002L3.58481 17.3124L3.63604 17.3641C5.32387 19.0519 7.61305 20.0001 10 20.0001C10.689 20.0001 11.3699 19.9211 12.0305 19.7681L14 22.0002H0Z" fill="#28A0FF"/>
</svg>
