<svg width="18" height="17" viewBox="0 0 18 17" fill="none" xmlns="http://www.w3.org/2000/svg">
<path d="M11.0002 2C11.0002 3.10457 10.1048 4 9.00022 4C7.89565 4 7.00022 3.10457 7.00022 2C7.00022 0.89543 7.89565 0 9.00022 0C10.1048 0 11.0002 0.89543 11.0002 2Z" fill="#28A0FF"/>
<path d="M2.96086 4.93477C4.01137 5.2761 4.58627 6.40441 4.24494 7.45492C3.90361 8.50542 2.7753 9.08032 1.72479 8.73899C0.674283 8.39766 0.0993814 7.26935 0.440712 6.21885C0.782043 5.16834 1.91035 4.59344 2.96086 4.93477Z" fill="#28A0FF"/>
<path d="M16.2758 8.73906C15.2253 9.08039 14.097 8.50549 13.7557 7.45498C13.4144 6.40448 13.9893 5.27617 15.0398 4.93484C16.0903 4.59351 17.2186 5.16841 17.5599 6.21892C17.9012 7.26942 17.3263 8.39773 16.2758 8.73906Z" fill="#28A0FF"/>
<path d="M3.26787 13.4876C3.91712 12.594 5.16786 12.3959 6.06148 13.0452C6.95509 13.6944 7.15319 14.9451 6.50394 15.8388C5.85469 16.7324 4.60395 16.9305 3.71033 16.2812C2.81672 15.632 2.61862 14.3812 3.26787 13.4876Z" fill="#28A0FF"/>
<path d="M11.4967 15.8388C10.8475 14.9452 11.0456 13.6945 11.9392 13.0452C12.8328 12.396 14.0836 12.5941 14.7328 13.4877C15.3821 14.3813 15.184 15.632 14.2903 16.2813C13.3967 16.9305 12.146 16.7324 11.4967 15.8388Z" fill="#28A0FF"/>
</svg>
