<svg width="20" height="17" viewBox="0 0 20 17" fill="none" xmlns="http://www.w3.org/2000/svg">
<path d="M16 4L12 0H9L13 4L9 8H12L16 4Z" fill="#28A0FF"/>
<path d="M4 0H7L11 4L7 8H4L8 4L4 0Z" fill="#28A0FF"/>
<path fill-rule="evenodd" clip-rule="evenodd" d="M5.58291 12.8135C5.85211 13.0987 6.10922 13.3937 6.40666 13.6497C7.39829 14.5034 8.67312 15.1253 10 15.1253C11.3269 15.1253 12.6017 14.5034 13.5933 13.6497C13.8908 13.3937 14.1479 13.0987 14.4171 12.8135C14.7489 13.0789 15.0696 13.3493 15.4229 13.5848C16.7658 14.4801 18.3708 15.1253 20 15.1253V16.8753C18.0688 16.8753 16.1743 16.1592 14.5672 15.1166C13.2832 16.163 11.6748 16.8753 10 16.8753C8.32522 16.8753 6.7168 16.163 5.4328 15.1166C3.82574 16.1592 1.93116 16.8753 0 16.8753V15.1253C1.6292 15.1253 3.23419 14.4801 4.57714 13.5848C4.93011 13.3495 5.25151 13.0786 5.58291 12.8135Z" fill="#28A0FF"/>
</svg>
